<?xml version="1.0" encoding="UTF-8" standalone="no"?>
<!-- Created with Inkscape (http://www.inkscape.org/) -->
<svg xmlns:dc="http://purl.org/dc/elements/1.1/" xmlns:cc="http://creativecommons.org/ns#" xmlns:rdf="http://www.w3.org/1999/02/22-rdf-syntax-ns#" xmlns:svg="http://www.w3.org/2000/svg" xmlns="http://www.w3.org/2000/svg" xmlns:sodipodi="http://sodipodi.sourceforge.net/DTD/sodipodi-0.dtd" xmlns:inkscape="http://www.inkscape.org/namespaces/inkscape" id="svg2985" version="1.1" inkscape:version="0.48.4 r9939" width="391.18173" height="73.423637" sodipodi:docname="Htw_logo.jpg">
  <metadata id="metadata2991">
    <rdf:RDF>
      <cc:Work rdf:about="">
        <dc:format>image/svg+xml</dc:format>
        <dc:type rdf:resource="http://purl.org/dc/dcmitype/StillImage"/>
        <dc:title/>
      </cc:Work>
    </rdf:RDF>
  </metadata>
  <defs id="defs2989"/>
  <sodipodi:namedview pagecolor="#ffffff" bordercolor="#666666" borderopacity="1" objecttolerance="10" gridtolerance="10" guidetolerance="10" inkscape:pageopacity="0" inkscape:pageshadow="2" inkscape:window-width="1366" inkscape:window-height="706" id="namedview2987" showgrid="false" fit-margin-top="0" fit-margin-left="0" fit-margin-right="0" fit-margin-bottom="0" inkscape:zoom="2.1809994" inkscape:cx="249.25991" inkscape:cy="17.145127" inkscape:window-x="-8" inkscape:window-y="-8" inkscape:window-maximized="1" inkscape:current-layer="text2995"/>
  <g transform="scale(0.99932377,1.0006767)" style="font-size:99.80438232px;font-style:normal;font-weight:normal;line-height:125%;letter-spacing:0px;word-spacing:0px;fill:#000000;fill-opacity:1;stroke:none;font-family:Sans" id="text2995">
    <path d="m 44.212772,72.057838 0,-34.631674 c -0.03956,-5.445466 -1.582346,-9.874225 -4.628369,-13.286288 -3.046118,-3.411968 -7.358439,-5.170996 -12.936976,-5.277088 -2.761251,0.0084 -5.422664,0.590553 -7.984248,1.746552 -2.561637,1.156103 -4.624232,2.83612 -6.187792,5.040058 l 0,-25.6493958701453 -12.47538714687976,0 0,72.0578358701453 12.47538714687976,0 0,-27.346048 c -0.02289,-3.393275 0.821275,-6.586971 2.532503,-9.581098 1.711182,-2.994053 4.426655,-4.590901 8.146428,-4.790548 3.239408,0.02915 5.493292,0.89411 6.76166,2.59488 1.268293,1.700849 1.875428,4.062853 1.821407,7.08602 l 0,32.036794 z" style="font-variant:normal;font-weight:bold;font-stretch:normal;fill:#000000;font-family:Akkurat;-inkscape-font-specification:Akkurat Bold" id="path3000"/>
    <path d="m 88.406033,71.359217 0,-10.479325 c -1.659262,0.195458 -3.106406,0.328529 -4.341436,0.399212 -1.235095,0.0707 -2.482632,0.103972 -3.742615,0.0998 -1.98777,0.01249 -3.451547,-0.436629 -4.391336,-1.347343 -0.939838,-0.910691 -1.405585,-2.357834 -1.397243,-4.341434 l 0,-25.250183 13.074206,0 0,-10.279719 -13.074206,0 0,-16.2679051 -12.475387,3.093896 0,13.1740091 -9.481295,0 0,10.279719 9.481295,0 0,26.348018 c -0.0021,5.031749 1.299508,8.940699 3.904797,11.726862 2.605258,2.78617 6.526684,4.200046 11.764289,4.241633 1.84217,-0.0021 3.64694,-0.122674 5.414316,-0.361787 1.767313,-0.239113 3.522183,-0.584265 5.264615,-1.035456 z" style="font-variant:normal;font-weight:bold;font-stretch:normal;fill:#000000;font-family:Akkurat;-inkscape-font-specification:Akkurat Bold" id="path3002"/>
    <path d="m 165.89273,20.160228 -11.87657,0 -7.98424,33.933053 -10.97834,-33.434038 -10.27972,0 -10.87854,33.533841 -8.28366,-34.032856 -12.076172,0 13.174012,51.89761 11.57716,0 11.57716,-35.030887 11.77676,35.030887 11.57716,0 z" style="font-variant:normal;font-weight:bold;font-stretch:normal;fill:#000000;font-family:Akkurat;-inkscape-font-specification:Akkurat Bold" id="path3004"/>
    <path d="m 237.2002,55.98954 c -0.0791,-4.110622 -1.41809,-7.416597 -4.01708,-9.917935 -2.59908,-2.501287 -5.98406,-4.085658 -10.15496,-4.753121 -2.39531,-0.374232 -4.29157,-0.64869 -5.68878,-0.823377 -1.39727,-0.174623 -3.19372,-0.399179 -5.38937,-0.673669 -1.47211,-0.160068 -2.81945,-0.61334 -4.04202,-1.359818 -1.22261,-0.746411 -1.87133,-2.023057 -1.94616,-3.829943 0.0291,-1.351464 0.41999,-2.490883 1.17269,-3.418259 0.75266,-0.927295 1.69247,-1.617598 2.81943,-2.070911 0.94187,-0.382535 1.85257,-0.615408 2.73211,-0.698622 0.87949,-0.08313 1.76524,-0.116394 2.65726,-0.0998 1.32444,0.0063 2.59277,0.218363 3.80499,0.636244 1.21216,0.417967 2.20603,1.00431 2.98162,1.75903 0.61126,0.646682 1.11028,1.374412 1.49705,2.183192 0.3867,0.808859 0.5863,1.711244 0.59881,2.70716 l 11.87657,0 c -0.0167,-1.917014 -0.43253,-3.796637 -1.24754,-5.638877 -0.8151,-1.842155 -1.92957,-3.522171 -3.3434,-5.040055 -1.95036,-2.043835 -4.36227,-3.569989 -7.23573,-4.578467 -2.87353,-1.008375 -5.88425,-1.511548 -9.03217,-1.509521 -3.25818,0.01045 -6.22316,0.463722 -8.89496,1.359819 -2.67182,0.896201 -4.96313,2.172847 -6.87393,3.829942 -1.57399,1.334912 -2.84232,2.956712 -3.805,4.865402 -0.96269,1.908777 -1.45754,4.179294 -1.48457,6.81156 0.052,3.366307 1.14565,6.314653 3.28103,8.845047 2.13536,2.530449 5.00054,4.206309 8.59554,5.027584 2.3204,0.476166 4.71568,0.846268 7.18582,1.110308 2.4701,0.264083 4.86537,0.559334 7.18583,0.885753 1.61345,0.259924 2.87762,0.8629 3.79251,1.808931 0.91483,0.946068 1.38058,2.172813 1.39725,3.68024 -0.17885,2.763309 -1.41808,4.572238 -3.71767,5.426791 -2.29966,0.854572 -4.58681,1.24131 -6.86146,1.160213 -1.77569,0.0042 -3.28937,-0.178806 -4.54104,-0.548918 -1.25172,-0.370095 -2.36619,-0.952279 -3.34341,-1.746553 -0.81507,-0.677817 -1.48042,-1.567727 -1.99606,-2.669733 -0.51566,-1.101979 -0.7818,-2.241396 -0.79842,-3.418256 l -11.67696,0 c 0.0416,2.461824 0.58218,4.724025 1.6218,6.786611 1.03961,2.062605 2.32873,3.825791 3.86737,5.289564 2.16446,2.039727 4.67201,3.549246 7.52265,4.528563 2.85061,0.979317 5.93203,1.465858 9.24427,1.459623 3.57832,0.01247 6.90093,-0.461592 9.96783,-1.422196 3.06683,-0.960604 5.66586,-2.482599 7.79712,-4.56599 1.36601,-1.341101 2.45136,-2.950425 3.25607,-4.827977 0.80462,-1.877534 1.2163,-4.060724 1.23507,-6.549576 z" style="font-variant:normal;font-weight:bold;font-stretch:normal;fill:#000000;font-family:Akkurat;-inkscape-font-specification:Akkurat Bold" id="path3006"/>
    <path d="m 294.13697,71.45902 0,-9.181885 c -0.0167,0.0083 -0.18303,0.0416 -0.49902,0.0998 -0.3161,0.05823 -0.68204,0.09149 -1.09783,0.0998 -1.03759,0.01248 -1.78196,-0.237024 -2.2331,-0.748525 -0.45124,-0.51148 -0.67164,-1.359805 -0.66119,-2.544977 l 0,-19.261998 c 0.0187,-1.758998 -0.0687,-3.530502 -0.26199,-5.314518 -0.19341,-1.783941 -0.6051,-3.505541 -1.23506,-5.164807 -1.56571,-3.846532 -4.07326,-6.582799 -7.52266,-8.208808 -3.44948,-1.625907 -7.42913,-2.416014 -11.93894,-2.37032 -5.9196,-0.02698 -10.87232,1.324523 -14.85819,4.054503 -3.98589,2.730077 -6.21899,7.000813 -6.69928,12.81222 l 12.07617,0 c 0.16424,-2.403552 1.05831,-4.233274 2.68221,-5.48917 1.62386,-1.255813 3.89022,-1.887899 6.79909,-1.896259 3.46604,0.03539 5.81557,0.788073 7.04859,2.258047 1.23295,1.470057 1.81097,3.445324 1.73408,5.925807 l 0,3.193699 -15.26988,1.097834 c -5.05462,0.365976 -9.21724,1.929556 -12.48786,4.690746 -3.27063,2.761242 -4.96313,6.620292 -5.07748,11.577159 0.008,4.389267 1.58853,8.160987 4.74065,11.315174 3.1521,3.154193 7.82621,4.805102 14.02233,4.952731 3.73843,-0.06238 6.99035,-0.835852 9.75575,-2.320424 2.76535,-1.484569 4.76972,-3.305973 6.01314,-5.464218 0.20373,2.006463 1.04374,3.707272 2.52003,5.102433 1.47621,1.395163 3.56376,2.122893 6.26264,2.183193 1.4367,-0.0021 2.58028,-0.122674 3.43073,-0.361787 0.85036,-0.239113 1.76938,-0.584265 2.75707,-1.035456 z M 277.46985,51.398597 c -0.0666,3.85699 -1.30579,6.797019 -3.71767,8.820097 -2.41194,2.023101 -5.59732,3.041924 -9.55614,3.056472 -2.01064,-0.02078 -3.72809,-0.602969 -5.15234,-1.746556 -1.42429,-1.143566 -2.16865,-2.723779 -2.23309,-4.740645 0.0748,-2.097928 0.84831,-3.715569 2.32042,-4.852927 1.47208,-1.137318 3.19368,-1.781878 5.16481,-1.933684 l 13.17401,-0.998031 z" style="font-variant:normal;font-weight:bold;font-stretch:normal;fill:#000000;font-family:Akkurat;-inkscape-font-specification:Akkurat Bold" id="path3008"/>
    <path d="m 350.27693,71.45902 0,-9.181885 c -0.0167,0.0083 -0.18302,0.0416 -0.49901,0.0998 -0.3161,0.05823 -0.68204,0.09149 -1.09783,0.0998 -1.03759,0.01248 -1.78196,-0.237024 -2.2331,-0.748525 -0.45124,-0.51148 -0.67164,-1.359805 -0.66119,-2.544977 l 0,-19.261998 c 0.0187,-1.758998 -0.0687,-3.530502 -0.26199,-5.314518 -0.19342,-1.783941 -0.6051,-3.505541 -1.23506,-5.164807 -1.56571,-3.846532 -4.07326,-6.582799 -7.52266,-8.208808 -3.44948,-1.625907 -7.42913,-2.416014 -11.93895,-2.37032 -5.91959,-0.02698 -10.87231,1.324523 -14.85818,4.054503 -3.9859,2.730077 -6.21899,7.000813 -6.69928,12.81222 l 12.07617,0 c 0.16424,-2.403552 1.05831,-4.233274 2.68221,-5.48917 1.62386,-1.255813 3.89022,-1.887899 6.79908,-1.896259 3.46605,0.03539 5.81558,0.788073 7.0486,2.258047 1.23294,1.470057 1.81097,3.445324 1.73408,5.925807 l 0,3.193699 -15.26988,1.097834 c -5.05462,0.365976 -9.21724,1.929556 -12.48786,4.690746 -3.27064,2.761242 -4.96313,6.620292 -5.07748,11.577159 0.008,4.389267 1.58852,8.160987 4.74064,11.315174 3.15211,3.154193 7.82621,4.805102 14.02234,4.952731 3.73843,-0.06238 6.99035,-0.835852 9.75575,-2.320424 2.76535,-1.484569 4.76972,-3.305973 6.01314,-5.464218 0.20373,2.006463 1.04373,3.707272 2.52003,5.102433 1.47621,1.395163 3.56376,2.122893 6.26264,2.183193 1.4367,-0.0021 2.58028,-0.122674 3.43073,-0.361787 0.85036,-0.239113 1.76938,-0.584265 2.75706,-1.035456 z M 333.60982,51.398597 c -0.0666,3.85699 -1.3058,6.797019 -3.71767,8.820097 -2.41194,2.023101 -5.59732,3.041924 -9.55614,3.056472 -2.01064,-0.02078 -3.72809,-0.602969 -5.15234,-1.746556 -1.42429,-1.143566 -2.16865,-2.723779 -2.23309,-4.740645 0.0748,-2.097928 0.84831,-3.715569 2.32042,-4.852927 1.47207,-1.137318 3.19368,-1.781878 5.16481,-1.933684 l 13.17401,-0.998031 z" style="font-variant:normal;font-weight:bold;font-stretch:normal;fill:#000000;font-family:Akkurat;-inkscape-font-specification:Akkurat Bold" id="path3010"/>
    <path d="m 391.44642,31.737387 0,-11.976372 c -1.29747,-0.199553 -2.59491,-0.299356 -3.89232,-0.299409 -3.12511,-0.02074 -6.03188,0.644615 -8.7203,1.996062 -2.68846,1.351548 -4.67205,3.513947 -5.95075,6.487201 l -1.09784,-7.784641 -10.57912,0 0,51.89761 12.57519,0 0,-26.148411 c 0.008,-4.279026 1.13939,-7.772131 3.3933,-10.479325 2.25386,-2.707121 5.58063,-4.104363 9.98031,-4.19173 0.70274,0.0021 1.418,0.04786 2.14577,0.137228 0.72769,0.08945 1.44295,0.210044 2.14576,0.361787 z" style="font-variant:normal;font-weight:bold;font-stretch:normal;fill:#000000;font-family:Akkurat;-inkscape-font-specification:Akkurat Bold" id="path3012"/>
  </g>
</svg>